<?xml version="1.0" encoding="UTF-8" standalone="no"?>
<svg
   xmlns:dc="http://purl.org/dc/elements/1.1/"
   xmlns:cc="http://creativecommons.org/ns#"
   xmlns:rdf="http://www.w3.org/1999/02/22-rdf-syntax-ns#"
   xmlns:svg="http://www.w3.org/2000/svg"
   xmlns="http://www.w3.org/2000/svg"
   viewBox="0 0 167.89333 97.546669"
   height="97.546669"
   width="167.89333"
   xml:space="preserve"
   id="svg2"
   version="1.1"><metadata
     id="metadata8"><rdf:RDF><cc:Work
         rdf:about=""><dc:format>image/svg+xml</dc:format><dc:type
           rdf:resource="http://purl.org/dc/dcmitype/StillImage" /></cc:Work></rdf:RDF></metadata><defs
     id="defs6"><clipPath
       id="clipPath20"
       clipPathUnits="userSpaceOnUse"><path
         id="path18"
         d="M 0,0 H 1259 V 731.594 H 0 Z" /></clipPath></defs><g
     transform="matrix(1.3333333,0,0,-1.3333333,0,97.546667)"
     id="g10"><g
       transform="scale(0.1)"
       id="g12"><g
         id="g14"><g
           clip-path="url(#clipPath20)"
           id="g16"><path
             id="path22"
             style="fill:#8f8b8d;fill-opacity:1;fill-rule:nonzero;stroke:none"
             d="m 384.523,124.309 c 11.688,0 18.973,6.55 18.973,15.039 0,12.644 -12.773,17.254 -23.816,24.422 -14.856,8.769 -22.61,17.128 -22.61,30.332 0,16.535 12.903,28.359 32.61,28.359 9.414,0 18.047,-2.109 26.992,-6.523 l -0.598,-17.137 c -10.019,5.449 -18.203,8.496 -25.019,8.496 -10.164,0 -15.938,-5.012 -15.938,-12.309 0,-9.84 12.356,-14.656 22.449,-21.199 16.411,-9.727 24.883,-19.101 24.883,-33.973 0,-18.683 -13.965,-32.023 -37.019,-32.023 -10.164,0 -20.008,2.141 -28.946,6.359 l -1.668,21.082 c 11.043,-7.129 20.614,-10.925 29.707,-10.925" /><path
             id="path24"
             style="fill:#8f8b8d;fill-opacity:1;fill-rule:nonzero;stroke:none"
             d="m 278.16,124.309 c 11.688,0 18.965,6.55 18.965,15.039 0,12.644 -12.766,17.254 -23.809,24.422 -14.863,8.769 -22.597,17.128 -22.597,30.332 0,16.535 12.879,28.359 32.586,28.359 9.425,0 18.047,-2.109 27.004,-6.523 l -0.598,-17.137 c -10.008,5.449 -18.203,8.496 -25.008,8.496 -10.168,0 -15.93,-5.012 -15.93,-12.309 0,-9.84 12.325,-14.656 22.442,-21.199 16.387,-9.727 24.863,-19.101 24.863,-33.973 0,-18.683 -13.945,-32.023 -37.012,-32.023 -10.164,0 -20.007,2.141 -28.945,6.359 l -1.668,21.082 c 11.063,-7.129 20.613,-10.925 29.707,-10.925" /><path
             id="path26"
             style="fill:#8f8b8d;fill-opacity:1;fill-rule:nonzero;stroke:none"
             d="m 483.02,156.152 c 0,-20.761 8.777,-31.375 25.906,-31.375 16.816,0 25.957,10.789 25.957,31.844 v 62.199 h 19.148 v -62.492 c 0,-31.394 -17.039,-48.387 -45.015,-48.387 -28.86,0 -45.11,18.973 -45.11,48.086 v 62.793 h 19.114 v -62.668" /><path
             id="path28"
             style="fill:#8f8b8d;fill-opacity:1;fill-rule:nonzero;stroke:none"
             d="m 653.484,186.965 c 0,16.765 -18.218,16.531 -33.668,16.531 v -33.289 c 12.059,0 33.668,-1.215 33.668,16.758 z m -52.168,31.855 h 24.868 c 13.671,0 24.285,-0.89 33.535,-7.422 8.015,-5.625 12.578,-14.113 12.578,-22.921 0,-14.102 -8.344,-24.707 -23.496,-29.883 l 34.726,-47.129 h -21.996 l -32.613,44.562 h -9.102 v -44.562 h -18.5 V 218.82" /><path
             id="path30"
             style="fill:#8f8b8d;fill-opacity:1;fill-rule:nonzero;stroke:none"
             d="m 1035.39,111.465 h -18.97 v 90.969 h -36.252 v 16.386 h 91.292 v -16.386 h -36.07 v -90.969" /><path
             id="path32"
             style="fill:#8f8b8d;fill-opacity:1;fill-rule:nonzero;stroke:none"
             d="m 147.301,154.285 c 4.91,13.625 10.398,25.844 17.996,37.922 7.48,-12.078 13.555,-24.91 18.098,-37.922 z m 18.64,68.02 c 0,0 -0.351,0.429 -0.8,0.429 -0.457,0 -0.821,-0.429 -0.821,-0.429 -26.64,-39.61 -36.738,-61.043 -52.859,-110.84 h 19.168 c 1.75,6.555 6.309,20.105 8.586,26.504 h 51.844 c 2.285,-6.399 6.836,-19.949 8.574,-26.504 h 19.179 c -16.277,50.246 -26.667,71.902 -52.871,110.84" /><path
             id="path34"
             style="fill:#8f8b8d;fill-opacity:1;fill-rule:nonzero;stroke:none"
             d="m 744.246,154.285 c 4.926,13.625 10.41,25.844 18.02,37.922 7.453,-12.078 13.527,-24.91 18.078,-37.922 z m 18.656,68.02 c 0,0 -0.375,0.429 -0.824,0.429 -0.437,0 -0.801,-0.429 -0.801,-0.429 -26.66,-39.61 -36.734,-61.043 -52.871,-110.84 h 19.184 c 1.734,6.555 6.289,20.105 8.582,26.504 h 51.824 c 2.285,-6.399 6.859,-19.949 8.598,-26.504 h 19.187 c -16.297,50.246 -26.687,71.902 -52.879,110.84" /><path
             id="path36"
             style="fill:#8f8b8d;fill-opacity:1;fill-rule:nonzero;stroke:none"
             d="m 870.469,178.215 70.398,-70.395 c 0,0 0.571,-0.047 0.903,0.266 0.156,0.156 0.273,0.519 0.273,0.879 V 218.82 H 923.84 v -66.41 l -70.402,70.41 c 0,0 -0.594,0.043 -0.911,-0.269 -0.156,-0.156 -0.261,-0.539 -0.261,-0.891 V 111.465 h 18.203 v 66.75" /><path
             id="path38"
             style="fill:#f9a721;fill-opacity:1;fill-rule:nonzero;stroke:none"
             d="m 704.871,482.129 c -0.152,-2.766 -0.223,-5.547 -0.223,-8.359 0,-27.559 7.54,-53.34 20.696,-75.411 9.336,31.016 22.652,63.711 39.883,96.543 -21.36,-3.172 -41.567,-7.48 -60.356,-12.773" /><path
             id="path40"
             style="fill:#f9a721;fill-opacity:1;fill-rule:nonzero;stroke:none"
             d="m 730.547,557.324 c 24.844,5.293 51.687,9.035 79.922,10.899 13.449,18.691 27.492,35.82 41.789,51.183 -0.617,0.653 -1.211,1.309 -1.836,1.961 -49.758,-0.605 -93.586,-25.82 -119.875,-64.043" /><path
             id="path42"
             style="fill:#f9a721;fill-opacity:1;fill-rule:nonzero;stroke:none"
             d="m 933.191,597.227 c -10.972,-43.172 -30.183,-90.372 -57.183,-137.168 -7.61,-13.164 -15.547,-25.821 -23.75,-37.891 8.172,-12.039 16.601,-23.508 25.215,-34.336 12.136,0.488 24.043,1.328 35.679,2.512 7.621,11.367 15,23.211 22.09,35.515 21.82,37.754 38.625,75.723 50.227,111.563 -11.668,24.394 -29.844,45.078 -52.278,59.805" /><path
             id="path44"
             style="fill:#4fbe37;fill-opacity:1;fill-rule:nonzero;stroke:none"
             d="m 933.191,597.238 c -23.257,15.262 -51.05,24.141 -80.933,24.141 -0.617,0 -1.231,0 -1.836,-0.012 22.187,-23.586 43.836,-51.465 63.648,-82.773 7.922,20.066 14.297,39.746 19.121,58.644" /><path
             id="path46"
             style="fill:#4fbe37;fill-opacity:1;fill-rule:nonzero;stroke:none"
             d="m 985.469,537.422 c -7.813,-24.168 -18.02,-49.297 -30.52,-74.68 9.453,-21.004 17.278,-41.734 23.442,-61.785 0.879,0.195 1.765,0.41 2.636,0.613 11.993,21.352 18.828,45.981 18.828,72.2 0,22.792 -5.16,44.375 -14.386,63.652" /><path
             id="path48"
             style="fill:#4fbe37;fill-opacity:1;fill-rule:nonzero;stroke:none"
             d="m 828.516,460.059 c -7.618,13.164 -14.598,26.379 -20.95,39.511 -14.519,-1.054 -28.66,-2.636 -42.339,-4.668 -5.657,-10.742 -10.879,-21.484 -15.665,-32.16 6.024,-12.254 12.594,-24.586 19.708,-36.883 21.785,-37.746 46.238,-71.289 71.472,-99.246 3.801,-0.293 7.649,-0.441 11.516,-0.441 23.914,0 46.492,5.683 66.465,15.781 -31.914,31.094 -63.203,71.32 -90.207,118.106" /><path
             id="path50"
             style="fill:#1476c6;fill-opacity:1;fill-rule:nonzero;stroke:none"
             d="m 981.027,401.57 c -31.535,-7.437 -66.504,-12.234 -103.554,-13.738 13.425,-16.902 27.293,-32.266 41.25,-45.879 26.226,13.242 47.949,34.082 62.304,59.617" /><path
             id="path52"
             style="fill:#1476c6;fill-opacity:1;fill-rule:nonzero;stroke:none"
             d="m 791.359,390.344 c -22.921,2.312 -44.789,5.906 -65.238,10.613 -0.262,-0.867 -0.523,-1.738 -0.777,-2.598 23.886,-40.136 66.289,-67.957 115.398,-71.746 -16.992,18.856 -33.672,40.235 -49.383,63.731" /><path
             id="path54"
             style="fill:#1476c6;fill-opacity:1;fill-rule:nonzero;stroke:none"
             d="m 852.258,569.602 c -43.586,0 -84.863,-4.407 -121.711,-12.278 -14.856,-21.609 -24.109,-47.375 -25.676,-75.195 42.895,12.09 93.371,19.062 147.387,19.062 15.203,0 30.125,-0.546 44.683,-1.621 6.34,13.106 12.051,26.145 17.129,39.024 -6.492,10.254 -13.179,20.136 -20.008,29.629 -13.64,0.918 -27.609,1.379 -41.804,1.379" /><path
             id="path56"
             style="fill:#8f8b8d;fill-opacity:1;fill-rule:nonzero;stroke:none"
             d="m 1121.97,207.574 v -8.808 c 0.32,-0.051 1.14,-0.071 2.48,-0.071 2.44,0 4.09,0.313 4.93,0.95 0.84,0.625 1.26,1.816 1.26,3.582 0,2.921 -1.89,4.375 -5.69,4.375 h -1.48 z m 10.51,-23.168 -6.7,11.328 h -3.81 v -11.328 h -3.79 v 26.399 h 6.77 c 6.36,0 9.52,-2.43 9.52,-7.313 0,-3.379 -1.7,-5.781 -5.09,-7.172 l 7.2,-11.914 z m 11.25,12.934 c 0,4.961 -1.74,9.18 -5.23,12.676 -3.5,3.496 -7.72,5.242 -12.68,5.242 -4.95,0 -9.18,-1.746 -12.69,-5.242 -3.5,-3.496 -5.26,-7.715 -5.26,-12.676 0,-4.945 1.76,-9.176 5.26,-12.684 3.51,-3.504 7.74,-5.25 12.69,-5.25 4.96,0 9.18,1.746 12.68,5.25 3.49,3.508 5.23,7.739 5.23,12.684 z m -39.34,0 c 0,5.906 2.1,10.945 6.29,15.125 4.19,4.18 9.24,6.269 15.14,6.269 5.9,0 10.95,-2.089 15.12,-6.269 4.18,-4.18 6.27,-9.219 6.27,-15.125 0,-5.895 -2.09,-10.934 -6.27,-15.133 -4.17,-4.18 -9.22,-6.277 -15.12,-6.277 -5.9,0 -10.95,2.097 -15.14,6.277 -4.19,4.199 -6.29,9.238 -6.29,15.133" /></g></g></g></g></svg>