<?xml version="1.0" encoding="UTF-8" standalone="no"?>
<svg
   xmlns:dc="http://purl.org/dc/elements/1.1/"
   xmlns:cc="http://creativecommons.org/ns#"
   xmlns:rdf="http://www.w3.org/1999/02/22-rdf-syntax-ns#"
   xmlns:svg="http://www.w3.org/2000/svg"
   xmlns="http://www.w3.org/2000/svg"
   xmlns:sodipodi="http://sodipodi.sourceforge.net/DTD/sodipodi-0.dtd"
   xmlns:inkscape="http://www.inkscape.org/namespaces/inkscape"
   viewBox="0 0 133.33333 22.499999"
   height="22.5"
   width="133.33333"
   xml:space="preserve"
   id="svg2"
   version="1.1"
   inkscape:version="0.91 r13725"
   sodipodi:docname="Bluehost Logo temp 2.svg"><sodipodi:namedview
     pagecolor="#ffffff"
     bordercolor="#666666"
     borderopacity="1"
     objecttolerance="10"
     gridtolerance="10"
     guidetolerance="10"
     inkscape:pageopacity="0"
     inkscape:pageshadow="2"
     inkscape:window-width="1485"
     inkscape:window-height="918"
     id="namedview28"
     showgrid="false"
     inkscape:zoom="4.1100002"
     inkscape:cx="69.58695"
     inkscape:cy="35.377482"
     inkscape:window-x="569"
     inkscape:window-y="109"
     inkscape:window-maximized="0"
     inkscape:current-layer="svg2" /><metadata
     id="metadata8"><rdf:RDF><cc:Work
         rdf:about=""><dc:format>image/svg+xml</dc:format><dc:type
           rdf:resource="http://purl.org/dc/dcmitype/StillImage" /><dc:title></dc:title></cc:Work></rdf:RDF></metadata><defs
     id="defs6"><clipPath
       id="clipPath20"
       clipPathUnits="userSpaceOnUse"><path
         id="path18"
         d="M 0,161.715 0,0 l 1000,0 0,161.715 z"
         inkscape:connector-curvature="0" /></clipPath></defs><g
     id="g4156"
     transform="translate(0,-0.18820311)"><path
       inkscape:connector-curvature="0"
       d="m 7.6744798,0.80146831 c 1.975,0.031333 3.9531202,0.020933 5.9296532,0.0052 0.02613,1.99999999 0.02507,3.99746659 0,5.99479989 C 11.62344,6.7833352 9.6421864,6.7885352 7.6604131,6.7989382 7.6526031,4.7989383 7.6250001,2.7989383 7.6744801,0.80147171 l 0,0"
       style="fill:#3575c0;fill-opacity:1;fill-rule:nonzero;stroke:none"
       id="path22" /><path
       inkscape:connector-curvature="0"
       d="m 0.01145833,0.81973501 c 1.99010157,-0.00267 3.98072827,-0.00267 5.97031487,0 0.00416,1.98959989 0.0026,3.97919989 0.0026,5.96879979 -1.9921866,0.0052 -3.9828133,0.00253 -5.97291487,0 -0.00208333,-1.9895999 -0.0010417,-3.9791999 0,-5.96879979 l 0,0"
       style="fill:#3575c0;fill-opacity:1;fill-rule:nonzero;stroke:none"
       id="path24" /><path
       inkscape:connector-curvature="0"
       d="m 15.287466,0.81973501 c 1.9896,-0.00267 3.9808,-0.00267 5.9704,0 0.0041,1.98959989 0.0025,3.97919989 0,5.96879979 -1.9896,0.00253 -3.9808,0.00253 -5.9704,0 -0.002,-1.9895999 -0.0011,-3.9791999 0,-5.96879979 l 0,0"
       style="fill:#3575c0;fill-opacity:1;fill-rule:nonzero;stroke:none"
       id="path26" /><path
       inkscape:connector-curvature="0"
       d="m 0,8.4733348 c 1.99844,-0.023333 3.9984399,-0.028667 5.9958399,0.00267 -0.02188,1.9791472 -0.015627,3.9583072 -0.00365,5.9400802 -1.9963466,0.01823 -3.9937465,0.02084 -5.99062399,0 C 0.01562507,12.434309 0.0192708,10.455149 0,8.4733348 l 0,0"
       style="fill:#3575c0;fill-opacity:1;fill-rule:nonzero;stroke:none"
       id="path38" /><path
       inkscape:connector-curvature="0"
       d="m 7.6494798,8.4577348 c 1.9895866,0 3.9807332,0 5.9702532,0 0,1.9896002 0,3.9791872 0,5.9687742 -1.98952,0 -3.9806666,0 -5.9702532,0 0,-1.989587 0,-3.979174 0,-5.9687742 l 0,0"
       style="fill:#3575c0;fill-opacity:1;fill-rule:nonzero;stroke:none"
       id="path40" /><path
       inkscape:connector-curvature="0"
       d="m 15.2812,8.4656014 c 1.9948,-0.0156 3.987066,-0.0104 5.981866,-0.00267 -0.01667,1.9922136 0.0156,3.9818016 -0.01573,5.9713746 -1.989467,-0.02343 -3.980133,0.01563 -5.970267,-0.02083 0.0188,-1.981773 0.0104,-3.963547 0.0041,-5.947881 l 0,0"
       style="fill:#3575c0;fill-opacity:1;fill-rule:nonzero;stroke:none"
       id="path42" /><path
       inkscape:connector-curvature="0"
       d="m 7.6546931,16.090562 c 1.9843733,0.0026 3.9687469,0.01303 5.9505069,-0.0052 0.03547,1.989573 -0.0025,3.97916 0.0224,5.968744 -1.989574,0.03385 -3.9791602,-0.0052 -5.9687469,0.02083 -0.016667,-1.99479 -0.010413,-3.989577 -0.00416,-5.984377 l 0,0"
       style="fill:#3575c0;fill-opacity:1;fill-rule:nonzero;stroke:none"
       id="path50" /><path
       inkscape:connector-curvature="0"
       d="m 0.01145833,16.095775 c 1.99010157,-0.0026 3.98072827,-0.0026 5.97031487,0 0.0026,1.989587 0.00416,3.97916 0,5.968748 -1.9895866,0.0026 -3.9802133,0.0052 -5.97031487,0 -0.0010417,-1.989588 -0.0010417,-3.979161 0,-5.968748 l 0,0"
       style="fill:#3575c0;fill-opacity:1;fill-rule:nonzero;stroke:none"
       id="path52" /><path
       inkscape:connector-curvature="0"
       d="m 15.292666,16.100975 c 1.988534,-0.0026 3.974534,-0.0052 5.96,0 0.0041,1.986987 0.0052,3.97396 0,5.958339 -1.985466,0.0052 -3.971466,0.0052 -5.9568,0 -0.0084,-1.984379 -0.0084,-3.971352 -0.0032,-5.958339 l 0,0"
       style="fill:#3575c0;fill-opacity:1;fill-rule:nonzero;stroke:none"
       id="path54" /></g><text
     xml:space="preserve"
     style="font-style:normal;font-variant:normal;font-weight:normal;font-stretch:normal;font-size:31.71805763px;line-height:125%;font-family:'Matterhorn Serif';-inkscape-font-specification:'Matterhorn Serif';letter-spacing:-0.16px;word-spacing:0px;fill:#3575c0;fill-opacity:1;stroke:none;stroke-width:1px;stroke-linecap:butt;stroke-linejoin:miter;stroke-opacity:1"
     x="29.771313"
     y="22.153082"
     id="text4152"
     sodipodi:linespacing="125%"><tspan
       sodipodi:role="line"
       id="tspan4154"
       x="29.771313"
       y="22.153082"
       style="font-style:normal;font-variant:normal;font-weight:normal;font-stretch:normal;font-family:'BlueHost Sans';-inkscape-font-specification:'BlueHost Sans';letter-spacing:-0.16px;fill:#3575c0;fill-opacity:1">bluehost</tspan></text>
</svg>