<?xml version="1.0" encoding="UTF-8" standalone="no"?>
<svg
   xmlns:dc="http://purl.org/dc/elements/1.1/"
   xmlns:cc="http://creativecommons.org/ns#"
   xmlns:rdf="http://www.w3.org/1999/02/22-rdf-syntax-ns#"
   xmlns:svg="http://www.w3.org/2000/svg"
   xmlns="http://www.w3.org/2000/svg"
   viewBox="0 0 1338.72 409.64001"
   height="409.64001"
   width="1338.72"
   xml:space="preserve"
   id="svg2"
   version="1.1"><metadata
     id="metadata8"><rdf:RDF><cc:Work
         rdf:about=""><dc:format>image/svg+xml</dc:format><dc:type
           rdf:resource="http://purl.org/dc/dcmitype/StillImage" /></cc:Work></rdf:RDF></metadata><defs
     id="defs6" /><g
     transform="matrix(1.3333333,0,0,-1.3333333,0,409.64)"
     id="g10"><g
       transform="scale(0.1)"
       id="g12"><g
         transform="scale(10)"
         id="g14"><text
           id="text18"
           style="font-variant:normal;font-weight:normal;font-size:202.62721252px;font-family:TimesNewRomanPSMT;-inkscape-font-specification:TimesNewRomanPSMT;writing-mode:lr-tb;fill:#4e2989;fill-opacity:1;fill-rule:nonzero;stroke:none"
           transform="matrix(1,0,0,-0.89891681,222.044,105.855)"><tspan
             id="tspan16"
             y="0"
             x="0 89.935646 157.41199 247.34761 303.6438 404.9574 483.81155 540.10779 596.40399 675.25818">craigslist</tspan></text>
</g><path
         id="path20"
         style="fill:#4e2989;fill-opacity:1;fill-rule:nonzero;stroke:none"
         d="M 1162.13,2120.14 V 1566.59 L 770.945,1175.37 c -81.148,104.17 -123.992,228.72 -123.992,360.78 0,297.77 220.84,547.29 515.177,583.99 z m 0,-761.37 V 952.148 C 1057.47,965.27 958.484,1006.38 874.844,1071.49 Z m 146.96,-406.622 v 406.622 l 287.3,-287.28 c -83.66,-65.11 -182.64,-106.22 -287.3,-119.342 z m 0,614.442 v 553.55 c 294.34,-36.7 515.18,-286.22 515.18,-583.99 0,-132.08 -42.84,-256.63 -123.99,-360.78 z m -73.47,705.17 C 829.988,2271.76 500,1941.77 500,1536.15 c 0,-405.62 329.988,-735.611 735.62,-735.611 405.61,0 735.61,329.991 735.61,735.611 0,405.62 -330,735.61 -735.61,735.61" /></g></g></svg>